<?xml version="1.0" standalone="no"?>
<!DOCTYPE svg PUBLIC "-//W3C//DTD SVG 20010904//EN"
 "http://www.w3.org/TR/2001/REC-SVG-20010904/DTD/svg10.dtd">
<svg version="1.0" xmlns="http://www.w3.org/2000/svg"
 width="200" height="100" viewBox="0 0 1080.000000 1080.000000"
 preserveAspectRatio="xMidYMid meet">
    <g transform="translate(0.000000,700.000000) scale(0.100000,-0.100000)"
    fill="#000000" stroke="none">
        <path d="M1197 1863 c-3 -630 -9 -1022 -16 -1064 -6 -36 -19 -87 -30 -112 -25
        -58 -91 -130 -150 -165 -41 -24 -58 -27 -159 -31 -109 -3 -115 -2 -175 27 -80
        40 -164 115 -213 191 -22 34 -43 61 -48 61 -8 0 -327 -228 -373 -266 l-22 -19
        44 -65 c149 -217 349 -354 591 -405 95 -20 379 -20 476 0 347 72 590 364 639
        770 6 56 13 466 16 1083 l5 992 -290 0 -290 0 -5 -997z"/>
        <path d="M6505 1904 c-233 -36 -433 -205 -535 -451 -18 -46 -36 -83 -40 -83
        -3 0 -20 28 -37 63 -85 171 -221 293 -398 353 -70 24 -95 27 -205 27 -215 0
        -350 -51 -480 -182 -87 -89 -130 -157 -177 -283 -53 -140 -65 -219 -66 -418 0
        -158 2 -185 26 -272 36 -136 97 -270 178 -391 80 -121 125 -170 143 -160 37
        21 316 265 316 276 0 6 -26 44 -57 82 -68 85 -138 228 -159 327 -44 207 36
        394 189 442 83 26 244 19 305 -13 139 -72 205 -215 234 -500 l12 -121 197 0
        c227 0 208 -10 209 110 1 185 53 398 119 491 74 103 154 139 310 139 85 0 103
        -3 156 -29 79 -37 121 -81 161 -166 44 -96 58 -176 51 -293 -12 -195 -79 -348
        -228 -522 l-47 -55 164 -123 c90 -67 171 -125 179 -128 32 -13 177 163 254
        308 108 200 158 491 131 753 -15 150 -47 262 -110 385 -142 276 -368 424 -665
        435 -55 2 -113 1 -130 -1z"/>
        <path d="M8273 1860 c-214 -57 -406 -202 -521 -392 -46 -77 -100 -215 -118
        -301 -12 -55 -15 -119 -11 -277 3 -198 5 -208 34 -290 55 -156 108 -244 207
        -349 102 -106 204 -167 369 -220 93 -30 104 -31 271 -31 150 0 186 3 268 24
        92 23 279 104 337 145 l29 21 -80 143 c-44 78 -81 143 -83 145 -2 2 -39 -15
        -84 -38 -147 -73 -306 -97 -454 -65 -162 34 -289 158 -341 334 -30 101 -91 91
        533 91 412 0 552 3 557 12 4 6 9 68 12 137 17 484 -168 799 -530 901 -109 31
        -300 36 -395 10z m345 -384 c97 -50 172 -196 172 -334 l0 -35 -356 6 c-196 3
        -358 8 -361 11 -9 9 17 98 47 161 34 72 110 154 169 184 77 40 259 43 329 7z"/>
        <path d="M9947 1864 c-151 -33 -256 -92 -347 -191 -63 -68 -102 -144 -126
        -242 -15 -64 -16 -85 -6 -153 33 -226 152 -335 543 -498 220 -92 278 -131 303
        -203 44 -130 -61 -227 -249 -227 -123 0 -253 47 -409 147 -37 24 -69 43 -71
        41 -1 -2 -39 -55 -85 -118 -46 -63 -94 -129 -107 -146 l-23 -31 77 -51 c111
        -73 252 -137 367 -166 86 -23 119 -26 260 -26 188 0 273 16 394 76 216 106
        340 338 303 566 -35 222 -178 341 -601 502 -113 42 -195 90 -224 129 -28 38
        -29 130 -3 171 33 49 98 71 212 70 116 0 160 -14 295 -93 l85 -49 23 26 c45
        53 182 249 182 260 0 15 -189 127 -260 153 -116 44 -203 61 -335 65 -93 3
        -149 -1 -198 -12z"/>
        <path d="M2751 1859 c-345 -42 -644 -288 -756 -619 -35 -105 -38 -126 -43
        -250 -9 -273 62 -473 237 -661 93 -101 189 -171 300 -219 155 -67 194 -75 391
        -74 164 0 180 2 255 28 175 60 344 174 443 298 60 76 130 203 163 298 12 36
        25 69 29 73 8 9 358 -356 426 -445 25 -31 56 -80 71 -108 14 -27 29 -50 33
        -50 8 0 122 253 151 335 46 131 37 144 -366 558 -617 634 -674 686 -842 764
        -144 66 -326 93 -492 72z m238 -424 c171 -41 312 -170 371 -339 94 -274 -65
        -553 -352 -621 -219 -52 -434 37 -560 230 -59 91 -81 175 -76 294 3 89 7 105
        41 173 104 211 339 318 576 263z"/>
    </g>
</svg>